# xmcd CD database file
#
# Track frame offsets:
#	150
#	13451
#	27466
#	41055
#	54411
#	66927
#	79888
#	94119
#	107833
#	120990
#	135578
#	149391
#	162298
#	176311
#	190292
#	203966
#	216183
#	230394
#	242706
#	257730
#	270104
#	286740
#	297167
#
# Disc length: 4150 seconds
#
# Revision: 0
# Processed by: cddbd v1.5.2PL0 Copyright (c) Steve Scherf et al.
# Submitted via: CDex 1.51
#
DISCID=4f103417
DTITLE=DOROTHY LAMOUR - ESSENTIAL DOROTHY LAMOUR
DYEAR=2004
DGENRE=Blues
TTITLE0=LOVELIGHT IN THE STARLIGHT
TTITLE1=THANKS FOR THE MEMORY 
TTITLE2=THE MOON OF MANAKOORA
TTITLE3=YOU TOOK THE WORDS RIGHT OUT OF MY HEART
TTITLE4=THIS IS THE BEGINNING OF THE END
TTITLE5=PANAMANIA
TTITLE6=THE MAN I LOVE
TTITLE7=PARADISE
TTITLE8=YOUR KISS
TTITLE9=I GOTTA A RIGHT TO SING THE BLUES
TTITLE10=LITTLE LADY MAKE-BELIEVE
TTITLE11=I'M ALL A TREMBLE OVER YOU
TTITLE12=PERFIDA
TTITLE13=ON A TROPIC NIGHT
TTITLE14=IT HAD TO BE YOU
TTITLE15=MOONLIGHT AND SHADOWS
TTITLE16=i'M GETTING SENTIMENTAL OVER YOU
TTITLE17=THE MOON AND THE WILLOW TREE
TTITLE18=MY HEART KEEPS CRYIN'
TTITLE19=MEXICAN MAGIC
TTITLE20=MOON OVER BURMA
TTITLE21=COMES LOVE
TTITLE22=STRANGE ENCHANTMENT
EXTD=YEAR: 2004
EXTT0=
EXTT1=
EXTT2=
EXTT3=
EXTT4=
EXTT5=
EXTT6=
EXTT7=
EXTT8=
EXTT9=
EXTT10=
EXTT11=
EXTT12=
EXTT13=
EXTT14=
EXTT15=
EXTT16=
EXTT17=
EXTT18=
EXTT19=
EXTT20=
EXTT21=
EXTT22=
PLAYORDER=
